<svg xmlns="http://www.w3.org/2000/svg" width="699.974" height="687.918" viewBox="0 0 185.201 182.012"><path d="m104.851 214.987-1.002.098-.842-.257-.843-.257-.564-.724-.565-.725-2.127-3.704-2.128-3.704-.17-.175-.17-.175-2.017-.184-2.018-.184-3.25 3.585-3.25 3.586-.757.313-.756.313-1.096-.147-1.097-.147-.684-.508-.685-.509-1.594-4.836-1.593-4.836-1.791-.662-1.791-.662-.981.713-.981.714-3.215 2.23-3.216 2.232h-2.194l-.734-.38-.734-.379-.29-.349-.29-.35-.418-4.808-.418-4.808v-.815l-1.414-1.067-1.413-1.067h-.762l-4.43 1.72-4.432 1.72h-1.796l-.78-.656-.78-.657-.332-.803-.333-.802.73-4.914.728-4.913-1.242-1.261-1.242-1.261-2.959.612-2.959.613-2.174.18-2.173.18-.898-.685-.898-.685-.457-.963-.458-.963.17-.706.17-.705 1.862-4.206 1.86-4.207-.301-.556-.302-.556-.728-.886-.729-.886-4.94-.323-4.94-.324-.563-.51-.563-.51-.37-.714-.37-.715v-2.167l1.297-1.906 1.297-1.907 1.586-2.21 1.587-2.208-.568-1.567-.568-1.567-4.734-1.515-4.734-1.516-.535-.717-.535-.716-.117-1.415-.118-1.415 3.75-3.598 3.748-3.597-.183-1.62-.184-1.62-3.834-2.308-3.835-2.309-.653-.537-.653-.536-.21-1.148-.21-1.148.254-.918.253-.918.709-.392.709-.392 3.75-2.11 3.75-2.111.178-1.652.177-1.652-2.208-2.12-2.208-2.121-1.572-1.477-1.572-1.477.004-1.287.004-1.287.45-.859.45-.859.853-.351.854-.351 4.135-1.297 4.136-1.296.552-1.533.55-1.532-2.02-2.84-2.022-2.84-1.012-1.28-1.012-1.281v-2.091l.53-1.039.53-1.039.492-.263.493-.264 3.542-.276 3.541-.277 1.453-.064 1.452-.064 1.019-1.484 1.018-1.485-2.04-4.648-2.042-4.65.179-.95.178-.95.792-.901.791-.902.792-.174.792-.174 4.767.866 4.767.866 1.189-1.189 1.188-1.188-.823-5.084-.823-5.085.545-.882.545-.882 1.127-.59 1.126-.59 3.572 1.372 3.572 1.373 1.636.617 1.636.616 1.436-1.028 1.436-1.029.316-4.708.315-4.708.363-.826.362-.827 1.156-.56 1.156-.56.807.232.806.231 3.85 2.677 3.851 2.676h1.011l1.573-.54 1.573-.54 1.587-4.779 1.588-4.78.748-.633.748-.634h2.817l3.604 3.741 3.605 3.741 1.588-.166 1.588-.166.588-.15.589-.15.894-1.507.893-1.507 1.7-2.955 1.698-2.955.82-.286.82-.286h1.74l.675.257.676.257.686 1 .687 1 2.188 3.571 2.187 3.572 1.958.298 1.957.298 3.44-3.51 3.44-3.512.689-.43.689-.43 1.37.293 1.371.294.382.582.38.582 1.44 4.223 1.439 4.223.166.42.167.42 1.953.613 1.953.612 1.606-1.033 1.605-1.032 2.633-1.827 2.634-1.827.795.023.796.023.947.45.947.449.235.438.234.438.277 3.165.277 3.166.157 1.985.158 1.985 1.453.95 1.454.951 4.682-1.81 4.681-1.81h1.852l.846.515.845.516.432.658.431.659-.838 5.213-.838 5.214 1.177 1.176 1.176 1.177 4.895-.865 4.895-.865.897.524.897.524.596.885.596.884v1.656l-1.854 4.434-1.855 4.434 1.113 1.578 1.113 1.578 1.734.005 1.734.004 3.157.261 3.157.262.635.416.636.417.5 1.103.502 1.104.004.794.004.794-3.064 4.082-3.064 4.081.413 1.455.414 1.455.205.18.205.18 3.969 1.24 3.969 1.239 1.012.435 1.011.435.51.999.51.999-.01.87-.009.87-.321.552-.321.55-3.506 3.144-3.506 3.143v3.48l4.167 2.29 4.168 2.291.452.446.452.446.169 1.13.17 1.13-.19.621-.19.621-.424.483-.424.482-4.16 2.501-4.16 2.501-.17 1.25-.169 1.25-.11.407-.11.406 3.729 3.405 3.728 3.405.268.589.269.588-.432 1.484-.43 1.483-.722.37-.721.37-4.336 1.345-4.336 1.346-.048.074-.048.074-.586 1.445-.585 1.445.493.671.493.672 2.477 3.572 2.477 3.572-.038 1.011-.038 1.011-.476.814-.476.813-.662.476-.661.476-3.97.157-3.968.156-1.067.13-1.068.13-.845 1.291-.845 1.29 1.697 3.972 1.696 3.97.32 1.068.32 1.067-.335.809-.335.808-.903.793-.902.792h-2.518l-3.428-.66-3.429-.66h-.54l-.54-.002-1.132 1.154-1.133 1.154.7 4.838.7 4.837-.153.605-.151.605-.891.944-.89.945h-1.912l-4.603-1.808-4.604-1.808-1.596 1.145-1.595 1.145-.168 2.316-.169 2.317-.248 2.778-.25 2.778-.925.86-.926.86-1.26-.002-1.261-.002-4.168-2.891-4.167-2.891-1.786.594-1.786.594-.838 2.498-.838 2.497-.577 2.116-.578 2.117-.436.5-.437.5-.851.36-.852.36-1 .007-1.001.007-3.837-3.94-3.836-3.939-1.954.282-1.955.282-1.157 1.805-1.157 1.804-1.504 2.535-1.505 2.535-.6.393-.599.393zm-.34-25.28h38.55l.875-.596.875-.595.553-.748.554-.747v-8.295l-.38-.926-.38-.926-2.822-4.498-2.823-4.498-.398-.794-.399-.793-1.757-6.238-1.757-6.237v-.622h11.123l-.143.595-.142.595 2.072 6.08 2.071 6.081 2.02.561 2.018.561.906-.953.906-.953 1.274-1.587 1.275-1.588 1.721-2.645 1.722-2.646 1.776-3.572 1.777-3.572.963-2.6.964-2.6.929-3.22.928-3.222.544-3.042.544-3.043.137-5.204.136-5.205-1.026-.697-1.025-.696-3.023-1.772-3.024-1.772-1.632-1.587-1.632-1.588-.577-1.548-.576-1.549-.275-1.98-.276-1.979.282-1.314.282-1.314.43-.846.43-.847.918-1.134.918-1.133 2.091-1.621 2.092-1.622v-.219l-1.583-3.088-1.582-3.09-1.718-2.732-1.719-2.734-1.851-2.321-1.852-2.322-.404-.335-.403-.336v5.092h-3.138l-.085-7.342-.085-7.342-.609-1.323-.609-1.323-.846-.883-.846-.883-1.059-.568-1.058-.568-5.424-.09-5.424-.091-3.192-1.274-3.193-1.273-2.893-.81-2.893-.808-2.113-.426-2.113-.426-2.743-.36-2.743-.36-1.446 1.423-1.446 1.423-1.503.736-1.503.736-2.381.002-2.382.002-1.53-.716-1.529-.717-1.514-1.444-1.514-1.444-2.248.246-2.248.246-2.92.518-2.918.517-2.373.682-2.372.682-2.25.817-2.248.816-1.058.56-1.059.56-5.688.139-5.689.138-.81.438-.81.438-.877.879-.877.879-.562 1.19-.562 1.19-.08 7.608-.082 7.606h-3.41V80.17h-.442l-1.864 2.315-1.864 2.315-1.718 2.646-1.718 2.646-1.753 3.169-1.753 3.168.01.271.01.271 1.731 1.323 1.732 1.323 1.262 1.367 1.262 1.367.634 1.279.635 1.278v6.14l-.926 1.812-.926 1.812-2.305 1.733-2.305 1.732-2.44 1.323-2.44 1.323-.896.853-.898.853.165 3.116.165 3.116.266 2.381.265 2.381.544 2.771.543 2.771.883 3.22.882 3.219.971 2.608.971 2.61 1.606 3.277 1.606 3.277 2.047 3.073 2.047 3.072 1.759 1.985 1.76 1.984.4.09.399.09 1.822-.447 1.821-.447.162-.569.161-.57 1.882-5.423 1.881-5.424-.053-.728-.053-.727h10.892l-.14.463-.14.463-1.578 6.119-1.58 6.119-3.234 5.258-3.234 5.258-.406.926-.406.926-.017 3.969-.016 3.969.543.925.543.925.885.596.885.596zm.132-1.617-36.777-.025-.92-.217-.92-.216-.46-.57-.462-.569-.154-.84-.154-.842.08-2.778.08-2.778h79.11l.074 3.372.074 3.37-.406.784-.405.784-.992.275-.991.276zm-.806-11.628-34.143.018-.319-.32-.319-.318v-.966l5.595-9.584 5.595-9.585.627-.993.627-.994 22.948.068 22.949.067 6.417 10.716 6.417 10.715-.07.393-.07.393-1.055.186-1.056.185zm.585-4.218h29.237l-.089-.246-.088-.246-4.233-7.03-4.233-7.031-20.634.066-20.633.067-2.753 4.63-2.754 4.63-1.528 2.58-1.529 2.58zm-.009-3.44H86.336l-.438-.484-.438-.484v-.802l.484-.438.484-.438h36.062l.433.662.434.661-.434.662-.433.661zm-.069-5.292H88.41l-.416-.415-.416-.416v-.939l.484-.437.484-.438h31.735l.317.317.318.318v1.375l-.318.318-.317.317zM147.64 152.6l-.398-.065-43.846-.133-43.845-.134-.472-.473-.473-.472v-7.171l.743-.639.742-.638h20.079v-2.405l.65-.65.649-.65h46.287l.549.698.548.697v2.442h20.419l.638.743.639.742-.008 3.359-.008 3.358-.359.473-.359.473-.887.255-.888.254zm-78.054-10.519h-4.762v-56.62h9.525v34.131h60.325V85.46h9.525v56.621h-9.525v-11.294l-18.852-.175-18.851-.175-.53.113-.529.114-10.781.02-10.782.02v11.377zm34.989-3.969h-7.69l-.03-3.571-.03-3.572h15.095v.992l.003.992.17 2.58.171 2.58zm-.225-19.05h-3.543v-.472l.397-.152.397-.153v-.42l-.595-.261-.596-.261-.079-.553-.079-.552.937-.638.938-.639.003-.198.003-.198h-1l-.597-.484-.596-.483.4-.373.399-.374-.428-.325-.427-.326 4.416-.008 4.416-.008.165.267.165.267-.81.46-.808.461-.003.199-.003.198h.711l.497.55.498.549-.655.503-.655.503-.198.006-.198.006v.404l.573.26.574.262.286.48.286.48-.624.512-.625.512zm3.866-7.53-9.658.191-.198-.21-.199-.212v-5.126l2.025-.17 2.024-.172h8.172l.138.53.139.529 1.093.004 1.094.004 6.77-.309 6.77-.308.7.176.7.176.4.776.403.777v1.32l-.629.73-.628.73-4.73.187-4.73.187zm-7.404-6.492h-6.527l-.575-.613-.576-.612v-2.686l.506-.624.506-.625h20.376l.683.642.684.641v2.313l-.606.606-.606.606-3.67.176-3.669.176zm3.885-6.086h-4.842l-.318-.317-.317-.318v-.89l.942-.718.942-.719-.876-.437-.876-.437-.08-.565-.08-.564.94-.775.94-.776-.944-.45-.945-.451.086-.446.085-.446 1.106-.843 1.105-.843-.817-.163-.816-.164-.356-.295-.356-.296v-.911l.526-.477.527-.476-.46-.35-.461-.35 4.677-.008 4.678-.009.448.449.448.448-.94.862-.942.863.477.15.477.152.418.463.419.462-.185.268-.185.267-.738.566-.737.565.795.47.795.47.14.364.14.363-.244.455-.243.454-.682.365-.683.366.775.375.776.376.168.439.168.439-.81.724-.811.724v.272h.712l.438.484.438.484v.355zM104.51 84.8H62.706V70.152l.416-.415.416-.416h9.934l.438.484.438.483v3.001h60.325v-3.144l.588-.412.588-.412h9.642l.412.588.412.588v14.302zm-.132-11.774h-7.54v-2.087l.638-.743.638-.742 5.513-.082 5.514-.083.86.16.862.162.528.567.528.566v2.281zM37.6 113.977l1.75-.087 1.092-.723 1.093-.724.715-1.08.714-1.08.114-1.572.114-1.573-.45-1.179-.45-1.179-1.049-.897-1.048-.898-1.18-.33-1.18-.33-1.175.132-1.175.133-1.207.707-1.208.708-.79 1.377-.79 1.377-.002 1.398-.003 1.397.357.852.357.851.702.833.702.832 1.124.57 1.124.572zm134.548-.048 1.36-.114.859-.445.86-.444.652-.702.652-.702.502-.982.502-.982-.006-1.4-.006-1.399-.49-1.058-.49-1.058-.76-.714-.762-.714-.995-.415-.995-.416-1.254-.024-1.253-.024-1.13.457-1.131.457-.878 1.025-.878 1.025-.307 1.025-.307 1.025v1.564l.407 1.194.407 1.193 1.013.99 1.013.988 1.027.383 1.028.382zm-66.976-56.394 1.058-.145.983-.679.983-.679.538-1.112.539-1.112v-2.131l-.615-1.166-.615-1.166-1.039-.591-1.038-.591-1.483-.005-1.482-.004-.875.595-.874.596-.506.682-.505.683-.252 1.121-.252 1.121.286 1.062.286 1.062.844.916.844.915 1.058.387 1.059.386z" style="fill:#000;stroke-width:.264583" transform="translate(-11.966 -33.073)"/></svg>